HIERARCHY
ROOT root
{
	OFFSET	0	13.1	24.9
	CHANNELS 6  Xposition Yposition Zposition Xrotation Yrotation Zrotation
	JOINT spine_1
	{
		OFFSET	0	9.99999	0
		CHANNELS 3  Xrotation Yrotation Zrotation
		JOINT spine_2
		{
			OFFSET	0	112	-10
			CHANNELS 3  Xrotation Yrotation Zrotation
			JOINT spine_3
			{
				OFFSET	0	206.5	19.3
				CHANNELS 3  Xrotation Yrotation Zrotation
				JOINT spine_4
				{
					OFFSET	0	110.4	14.6
					CHANNELS 3  Xrotation Yrotation Zrotation
					JOINT neck_1
					{
						OFFSET	0	71.8	-50.3
						CHANNELS 3  Xrotation Yrotation Zrotation
						JOINT neck_2
						{
							OFFSET	0	86.2	-25.8
							CHANNELS 3  Xrotation Yrotation Zrotation
							JOINT head_ee
							{
								OFFSET	0	179.8	-8.7
								CHANNELS 3  Xrotation Yrotation Zrotation
								End Site
								{
									OFFSET	1	0	0
								}
							}
						}
					}
					JOINT left_clavicle
					{
						OFFSET	-43.2	22.4	-70.8
						CHANNELS 3  Xrotation Yrotation Zrotation
						JOINT left_shoulder
						{
							OFFSET	-93.9	-5.79999	48.7
							CHANNELS 3  Xrotation Yrotation Zrotation
							JOINT left_elbow
							{
								OFFSET	-291.4	-30.8	15.2
								CHANNELS 3  Xrotation Yrotation Zrotation
								JOINT left_lowarm_twist
								{
									OFFSET	-110.7	-3.89999	13.6
									CHANNELS 3  Xrotation Yrotation Zrotation
									JOINT left_hand
									{
										OFFSET	-110.7	-3.89999	13.6
										CHANNELS 3  Xrotation Yrotation Zrotation
										JOINT left_ee
										{
											OFFSET	-80.8	-5.10001	12.1
											CHANNELS 3  Xrotation Yrotation Zrotation
											End Site
											{
												OFFSET	1	0	0
											}
										}
									}
								}
							}
						}
					}
					JOINT right_clavicle
					{
						OFFSET	43.2	22.4	-70.8
						CHANNELS 3  Xrotation Yrotation Zrotation
						JOINT right_shoulder
						{
							OFFSET	93.9	-5.79999	48.7
							CHANNELS 3  Xrotation Yrotation Zrotation
							JOINT right_elbow
							{
								OFFSET	291.4	-30.8	15.2
								CHANNELS 3  Xrotation Yrotation Zrotation
								JOINT right_lowarm_twist
								{
									OFFSET	110.7	-3.89999	13.6
									CHANNELS 3  Xrotation Yrotation Zrotation
									JOINT right_hand
									{
										OFFSET	110.7	-3.89999	13.6
										CHANNELS 3  Xrotation Yrotation Zrotation
										JOINT right_ee
										{
											OFFSET	80.8	-5.10001	12.1
											CHANNELS 3  Xrotation Yrotation Zrotation
											End Site
											{
												OFFSET	1	0	0
											}
										}
									}
								}
							}
						}
					}
				}
			}
		}
	}
	JOINT left_hip
	{
		OFFSET	-82.8	-127.5	0.300001
		CHANNELS 3  Xrotation Yrotation Zrotation
		JOINT left_knee
		{
			OFFSET	-28.2	-396.7	2.2
			CHANNELS 3  Xrotation Yrotation Zrotation
			JOINT left_ankle
			{
				OFFSET	-11.7	-411.3	35.4
				CHANNELS 3  Xrotation Yrotation Zrotation
				JOINT left_toes
				{
					OFFSET	0	-60	-88.6
					CHANNELS 3  Xrotation Yrotation Zrotation
					JOINT left_foot_ee
					{
						OFFSET	-22.5	-16.5	-42.2
						CHANNELS 3  Xrotation Yrotation Zrotation
						End Site
						{
							OFFSET	1	0	0
						}
					}
				}
			}
		}
	}
	JOINT right_hip
	{
		OFFSET	82.8	-127.5	0.300001
		CHANNELS 3  Xrotation Yrotation Zrotation
		JOINT right_knee
		{
			OFFSET	28.2	-396.7	2.2
			CHANNELS 3  Xrotation Yrotation Zrotation
			JOINT right_ankle
			{
				OFFSET	11.7	-411.3	35.4
				CHANNELS 3  Xrotation Yrotation Zrotation
				JOINT right_toes
				{
					OFFSET	0	-60	-88.6
					CHANNELS 3  Xrotation Yrotation Zrotation
					JOINT right_foot_ee
					{
						OFFSET	22.5	-16.5	-42.2
						CHANNELS 3  Xrotation Yrotation Zrotation
						End Site
						{
							OFFSET	1	0	0
						}
					}
				}
			}
		}
	}
}
MOTION
Frames: 9
Frame Time: 0.02
1041.4 574.639 -1682.42 -6.14854638226 15.1747066782 -4.94104495013 3.62221 0.579132 4.34747 3.63267 0.301589 4.37543 3.65067 -0.34746 4.37204 3.62418 0.346704 4.3721 -2.46553 12.5549 -0.682632 -2.18619 23.3045 0.978006 -0.0 0.0 -0.0 2.55339 21.3171 6.13802 -59.3236 -57.162 49.6325 0.393917 -11.0419 0.0380753 -76.3917 -7.36257 5.31376 -1.49671 20.275 -0.711705 -0.0 0.0 -0.0 9.06715 -1.66025 -17.679 7.7801 32.5943 -80.0397 1.31034 32.9862 -0.387985 67.2722 2.46234 7.73623 -1.1463 -6.67573 4.69195 0.0 0.0 0.0 29.3818 18.2304 -6.68311 3.63331 -0.166581 -0.532499 -4.30743 28.9978 0.678961 23.2765 -0.0 -0.0 -0.0 0.0 -0.0 11.461 4.00744 17.7143 -37.5421 0.317851 -5.65111 19.3741 24.4739 3.11431 25.7984 -0.0 -0.0 0.0 0.0 0.0 
1041.4 574.639 -1682.42 -6.16298954906 15.6602975082 -4.88671730985 3.62221 0.579132 4.34747 3.63267 0.301589 4.37543 3.65067 -0.34746 4.37204 3.62418 0.346704 4.3721 -2.46553 12.5549 -0.682632 -2.18619 23.3045 0.978006 -0.0 0.0 -0.0 2.55339 21.3171 6.13802 -59.3236 -57.162 49.6325 0.393917 -11.0419 0.0380753 -76.3917 -7.36257 5.31376 -1.49671 20.275 -0.711705 -0.0 0.0 -0.0 9.06715 -1.66025 -17.679 7.7801 32.5943 -80.0397 1.31034 32.9862 -0.387985 67.2722 2.46234 7.73623 -1.1463 -6.67573 4.69195 0.0 0.0 0.0 29.3818 18.2304 -6.68311 3.63331 -0.166581 -0.532499 -4.30743 28.9978 0.678961 23.2765 -0.0 -0.0 -0.0 0.0 -0.0 11.461 4.00744 17.7143 -37.5421 0.317851 -5.65111 19.3741 24.4739 3.11431 25.7984 -0.0 -0.0 0.0 0.0 0.0 
1041.4 574.639 -1682.42 -6.18416411037 16.3428996153 -4.80990579565 3.62221 0.579132 4.34747 3.63267 0.301589 4.37543 3.65067 -0.34746 4.37204 3.62418 0.346704 4.3721 -2.46553 12.5549 -0.682632 -2.18619 23.3045 0.978006 -0.0 0.0 -0.0 2.55339 21.3171 6.13802 -59.3236 -57.162 49.6325 0.393917 -11.0419 0.0380753 -76.3917 -7.36257 5.31376 -1.49671 20.275 -0.711705 -0.0 0.0 -0.0 9.06715 -1.66025 -17.679 7.7801 32.5943 -80.0397 1.31034 32.9862 -0.387985 67.2722 2.46234 7.73623 -1.1463 -6.67573 4.69195 0.0 0.0 0.0 29.3818 18.2304 -6.68311 3.63331 -0.166581 -0.532499 -4.30743 28.9978 0.678961 23.2765 -0.0 -0.0 -0.0 0.0 -0.0 11.461 4.00744 17.7143 -37.5421 0.317851 -5.65111 19.3741 24.4739 3.11431 25.7984 -0.0 -0.0 0.0 0.0 0.0 
1015.23934293 572.063 -1701.44983055 -6.85181719757 15.1666717857 -3.67314913372 3.66431 0.555378 4.02149 3.67326 0.298569 4.04862 3.68996 -0.299335 4.04857 3.66726 0.34328 4.04508 -2.58867 12.0671 -0.56737 -2.34097 22.3432 1.05876 -0.0 0.0 -0.0 2.60765 21.0602 6.20657 -58.7637 -57.4448 49.6381 0.437758 -12.2355 0.0469201 -76.3985 -7.36344 5.31372 -1.54682 20.4251 -0.938919 -0.0 0.0 -0.0 8.67763 -1.82283 -16.8932 4.79593 33.215 -78.5648 1.31186 33.0165 -0.38881 67.1074 2.44587 7.72297 -1.08853 -7.4451 3.97098 0.0 0.0 0.0 29.6792 19.1702 -7.04234 2.63002 -0.117205 -0.386505 -4.20793 29.7583 0.666518 22.7931 -0.0 -0.0 -0.0 0.0 -0.0 10.3035 3.89081 18.2981 -36.6395 0.266933 -5.52209 20.4596 23.8056 3.24605 25.6694 -0.0 -0.0 0.0 0.0 0.0 
1015.0495709 572.063 -1701.18617476 -6.87081779799 15.7379055051 -3.60183604977 3.66431 0.555378 4.02149 3.67326 0.298569 4.04862 3.68996 -0.299335 4.04857 3.66726 0.34328 4.04508 -2.58867 12.0671 -0.56737 -2.34097 22.3432 1.05876 -0.0 0.0 -0.0 2.60765 21.0602 6.20657 -58.7637 -57.4448 49.6381 0.437758 -12.2355 0.0469201 -76.3985 -7.36344 5.31372 -1.54682 20.4251 -0.938919 -0.0 0.0 -0.0 8.67763 -1.82283 -16.8932 4.79593 33.215 -78.5648 1.31186 33.0165 -0.38881 67.1074 2.44587 7.72297 -1.08853 -7.4451 3.97098 0.0 0.0 0.0 29.6792 19.1702 -7.04234 2.63002 -0.117205 -0.386505 -4.20793 29.7583 0.666518 22.7931 -0.0 -0.0 -0.0 0.0 -0.0 10.3035 3.89081 18.2981 -36.6395 0.266933 -5.52209 20.4596 23.8056 3.24605 25.6694 -0.0 -0.0 0.0 0.0 0.0 
1014.93706999 572.063 -1701.02719658 -6.88258982574 16.0803652444 -3.55889028044 3.66431 0.555378 4.02149 3.67326 0.298569 4.04862 3.68996 -0.299335 4.04857 3.66726 0.34328 4.04508 -2.58867 12.0671 -0.56737 -2.34097 22.3432 1.05876 -0.0 0.0 -0.0 2.60765 21.0602 6.20657 -58.7637 -57.4448 49.6381 0.437758 -12.2355 0.0469201 -76.3985 -7.36344 5.31372 -1.54682 20.4251 -0.938919 -0.0 0.0 -0.0 8.67763 -1.82283 -16.8932 4.79593 33.215 -78.5648 1.31186 33.0165 -0.38881 67.1074 2.44587 7.72297 -1.08853 -7.4451 3.97098 0.0 0.0 0.0 29.6792 19.1702 -7.04234 2.63002 -0.117205 -0.386505 -4.20793 29.7583 0.666518 22.7931 -0.0 -0.0 -0.0 0.0 -0.0 10.3035 3.89081 18.2981 -36.6395 0.266933 -5.52209 20.4596 23.8056 3.24605 25.6694 -0.0 -0.0 0.0 0.0 0.0 
993.291069207 577.206 -1710.94426472 -7.42950142412 14.0383985109 -3.43341683882 3.77805 0.486282 3.71907 3.78571 0.248812 3.74243 3.79796 -0.296546 3.73896 3.77858 0.29725 3.7389 -2.53743 11.7284 -0.788545 -2.29395 21.8931 0.772682 -0.0 0.0 -0.0 2.79893 20.2354 6.45637 -57.9861 -57.8445 48.8158 0.472832 -13.1828 0.0546367 -76.4105 -7.36497 5.31366 -1.58013 20.4895 -1.10587 -0.0 0.0 -0.0 8.18434 -1.63189 -15.9185 2.87606 33.7896 -77.1377 1.30732 32.9258 -0.386339 66.9341 2.42859 7.70897 -1.03856 -7.98978 3.40385 0.0 0.0 0.0 29.7602 19.7289 -7.12683 1.9097 -0.0833381 -0.281177 -4.42727 30.0515 0.702933 22.2771 -0.0 -0.0 -0.0 0.0 -0.0 10.0241 4.58986 19.1923 -35.7573 0.219141 -5.39523 21.13 23.3954 3.32566 25.5436 -0.0 -0.0 0.0 0.0 0.0 
969.941602146 581.826 -1721.90390584 -7.82075202751 12.8830622129 -3.29630369338 3.7346 0.53592 3.48426 3.7413 0.313262 3.51125 3.75709 -0.201589 3.51942 3.73998 0.356418 3.50714 -1.99795 12.2046 -0.775343 -1.70643 22.6799 0.749229 -0.0 0.0 -0.0 2.39964 19.7278 5.84657 -54.1681 -59.7725 49.2091 0.487761 -13.5838 0.0580925 -76.8137 -7.41641 5.31129 -1.47916 21.1091 -0.22665 -0.0 0.0 -0.0 8.55848 2.49275 -16.7592 -0.660509 32.8783 -74.3614 1.12418 29.112 -0.291914 67.3549 2.47062 7.74287 -0.977905 -7.74175 3.12023 0.0 0.0 0.0 29.4901 20.1495 -6.13743 0.770712 -0.0325032 -0.113803 -2.57367 29.2881 0.405173 22.2221 -0.0 -0.0 -0.0 0.0 -0.0 9.8727 5.88378 19.3206 -35.396 0.200136 -5.34308 21.8336 21.4848 3.35914 24.9087 -0.0 -0.0 0.0 0.0 0.0 
969.196464156 581.826 -1720.52421047 -7.85658700319 13.9732565616 -3.14199996267 3.7346 0.53592 3.48426 3.7413 0.313262 3.51125 3.75709 -0.201589 3.51942 3.73998 0.356418 3.50714 -1.99795 12.2046 -0.775343 -1.70643 22.6799 0.749229 -0.0 0.0 -0.0 2.39964 19.7278 5.84657 -54.1681 -59.7725 49.2091 0.487761 -13.5838 0.0580925 -76.8137 -7.41641 5.31129 -1.47916 21.1091 -0.22665 -0.0 0.0 -0.0 8.55848 2.49275 -16.7592 -0.660509 32.8783 -74.3614 1.12418 29.112 -0.291914 67.3549 2.47062 7.74287 -0.977905 -7.74175 3.12023 0.0 0.0 0.0 29.4901 20.1495 -6.13743 0.770712 -0.0325032 -0.113803 -2.57367 29.2881 0.405173 22.2221 -0.0 -0.0 -0.0 0.0 -0.0 9.8727 5.88378 19.3206 -35.396 0.200136 -5.34308 21.8336 21.4848 3.35914 24.9087 -0.0 -0.0 0.0 0.0 0.0 
